<?xml version="1.0" encoding="utf-8"?>
<svg viewBox="0 0 250 250" xmlns="http://www.w3.org/2000/svg" xmlns:xlink="http://www.w3.org/1999/xlink">
  <defs>
    <linearGradient id="linearGradient4728">
      <stop style="stop-color:#ffcc00;stop-opacity:1;" offset="0" id="stop4724"/>
      <stop style="stop-color:#ffcc00;stop-opacity:0;" offset="1" id="stop4726"/>
    </linearGradient>
    <linearGradient id="linearGradient7590" gradientUnits="userSpaceOnUse" gradientTransform="matrix(2.0119475,0,0,2.0119475,-263.2421,-258.54269)" x1="266.23102" y1="206.47043" x2="333.02985" y2="206.47043" xlink:href="#linearGradient4728"/>
    <linearGradient id="linearGradient7592" gradientUnits="userSpaceOnUse" gradientTransform="matrix(0.53232778,0,0,0.53232778,-263.2421,-139.30121)" x1="970.06996" y1="509.5426" x2="1146.8378" y2="509.5426" xlink:href="#linearGradient4728"/>
  </defs>
  <g id="layer1" transform="matrix(1.482155, 0, 0, 1.482155, -368.070404, -63.080475)" style="">
    <path style="fill:none;fill-rule:evenodd;stroke:#000000;stroke-width:2.34392;stroke-linecap:butt;stroke-linejoin:miter;stroke-miterlimit:4;stroke-dasharray:none;stroke-opacity:1" d="m 409.02649,171.15386 c 6.89404,-11.27626 0.80626,-25.71055 -8.54153,-33.53964 -7.70175,-6.90458 -18.17946,-9.78331 -25.47319,-17.28615 -11.38361,-9.81374 -23.69383,-21.350474 -39.71342,-21.43249 -23.28724,-1.811193 -48.52463,-4.409256 -67.11617,-20.047884 -1.14829,-0.885801 -2.34124,-1.714008 -3.57633,-2.474235" id="path7552"/>
    <path style="fill:none;fill-rule:evenodd;stroke:#000000;stroke-width:2.34392;stroke-linecap:butt;stroke-linejoin:miter;stroke-miterlimit:4;stroke-dasharray:none;stroke-opacity:1" d="M 281.24059,111.49491 C 269.03844,103.99457 269.6379,88.017287 264.60585,76.373461" id="path7554"/>
    <path style="fill:none;fill-rule:evenodd;stroke:#000000;stroke-width:2.34392;stroke-linecap:butt;stroke-linejoin:miter;stroke-miterlimit:4;stroke-dasharray:none;stroke-opacity:1" d="m 268.97216,176.96791 c 3.5535,-12.33 20.53964,-13.23208 24.46569,-25.08334" id="path7556"/>
    <path style="fill:none;fill-rule:evenodd;stroke:#000000;stroke-width:2.34392;stroke-linecap:butt;stroke-linejoin:miter;stroke-miterlimit:4;stroke-dasharray:none;stroke-opacity:1" d="m 268.97216,176.96791 c 9.50033,-0.23249 18.03209,-5.96019 27.62178,-5.43436" id="path7558"/>
    <path style="fill:none;fill-rule:evenodd;stroke:#000000;stroke-width:2.34392;stroke-linecap:butt;stroke-linejoin:miter;stroke-miterlimit:4;stroke-dasharray:none;stroke-opacity:1" d="m 296.59394,171.53355 c 15.57947,10.11823 35.30292,5.4117 51.39306,-0.85802 15.82975,-6.09247 33.63389,-13.32226 50.48464,-6.65989 3.97455,1.58347 7.65639,3.97487 10.55485,7.13822" id="path7560"/>
    <path style="fill:none;fill-rule:evenodd;stroke:#000000;stroke-width:2.34392;stroke-linecap:butt;stroke-linejoin:miter;stroke-miterlimit:4;stroke-dasharray:none;stroke-opacity:1" d="m 368.89919,136.38841 c -8.61807,-3.07483 -15.93905,-9.68227 -25.34356,-10.4415" id="path7562"/>
    <path style="fill:none;fill-rule:evenodd;stroke:#000000;stroke-width:2.34392;stroke-linecap:butt;stroke-linejoin:miter;stroke-miterlimit:4;stroke-dasharray:none;stroke-opacity:1" d="m 343.55563,125.94691 c -1.23813,5.00221 -6.5267,-1.2128 -9.20723,1.11534" id="path7564"/>
    <path style="fill:none;fill-rule:evenodd;stroke:#000000;stroke-width:2.34392;stroke-linecap:butt;stroke-linejoin:miter;stroke-miterlimit:4;stroke-dasharray:none;stroke-opacity:1" d="m 334.3484,127.06225 c 1.77977,0.68027 3.8095,0.90496 5.33923,2.04082 1.74094,1.29271 2.68754,3.40872 4.15273,5.00718 2.15343,2.34925 4.67726,4.91323 7.66479,6.09879 3.33824,1.32475 10.76324,-2.86002 14.02439,-3.74943 1.78854,-0.48781 3.24257,0.15941 4.88835,0.85428 0.34872,0.14739 1.34364,0.69533 1.02038,0.49838 -0.82861,-0.50498 -1.69272,-0.94925 -2.53908,-1.42386" id="path7566"/>
    <path style="fill:none;fill-rule:evenodd;stroke:#000000;stroke-width:2.34392;stroke-linecap:butt;stroke-linejoin:miter;stroke-miterlimit:4;stroke-dasharray:none;stroke-opacity:1" d="m 281.24059,111.49491 c 14.59784,2.5904 30.45964,1.63249 43.57322,9.59881 3.23834,1.86538 7.37549,2.62348 9.53459,5.96857" id="path7568"/>
    <path style="fill:none;fill-rule:evenodd;stroke:#000000;stroke-width:2.34392;stroke-linecap:butt;stroke-linejoin:miter;stroke-miterlimit:4;stroke-dasharray:none;stroke-opacity:1" d="m 393.10783,149.69185 c -0.0229,0.19409 -1.00151,2.75211 0.56955,2.0883 0.36614,-0.15464 0.69057,-0.45633 0.87798,-0.80687 2.20515,-4.12457 -2.5299,-4.73797 -2.2069,-3.20362 0.81155,3.8548 5.02049,3.8702 2.72893,-0.52209" id="path7570"/>
    <path style="fill:none;fill-rule:evenodd;stroke:#000000;stroke-width:2.34392;stroke-linecap:butt;stroke-linejoin:miter;stroke-miterlimit:4;stroke-dasharray:none;stroke-opacity:1" d="m 293.43785,151.88457 c 6.86626,2.21495 13.2331,-2.38099 19.18716,-5.12581 6.04875,-3.20689 12.93984,-3.9012 19.52139,-5.36066 7.52701,-1.19756 15.20676,-1.19144 22.77996,-0.46286" id="path7572"/>
    <path style="fill:none;fill-rule:evenodd;stroke:#000000;stroke-width:2.34392;stroke-linecap:butt;stroke-linejoin:miter;stroke-miterlimit:4;stroke-dasharray:none;stroke-opacity:1" d="m 368.89919,136.38841 c 9.6456,0.94716 17.45471,7.31552 26.17822,10.85916" id="path7574"/>
    <path style="fill:none;fill-rule:evenodd;stroke:#000000;stroke-width:2.34392;stroke-linecap:butt;stroke-linejoin:miter;stroke-miterlimit:4;stroke-dasharray:none;stroke-opacity:1" d="m 394.55536,149.69185 c 2.43814,1.66113 4.97314,3.19938 7.3145,4.98343 1.63771,1.2479 6.38475,8.38671 6.60132,10.39407 0.17914,1.66052 -0.25487,3.11795 -0.37359,4.79357 -0.0535,0.75726 0.32881,2.9047 0.0204,2.25443 -0.14694,-0.31054 -0.2531,-0.64232 -0.3797,-0.96349" id="path7576"/>
    <path style="fill:#ffff00;stroke:#810000;stroke-width:1.68228;stroke-miterlimit:4;stroke-dasharray:none" d="m 409.57299,164.11938 c 0,-0.85621 -3.29462,-6.40859 -5.13631,-8.65614 -0.73563,-0.89771 -2.7119,-2.55469 -4.39171,-3.6822 -2.51158,-1.68583 -3.05651,-2.22921 -3.06716,-3.05842 -0.007,-0.55458 -0.3138,-1.36293 -0.68155,-1.79632 -0.77896,-0.91806 -15.42095,-8.46664 -19.14591,-9.87056 -1.39491,-0.52572 -4.04059,-1.27786 -5.87919,-1.67143 -2.72162,-0.58252 -4.80084,-1.4617 -11.18575,-4.72972 -7.88146,-4.03398 -11.15173,-5.32324 -14.69507,-5.7933 -1.64202,-0.2179 -1.91441,-0.16212 -1.91441,0.3909 0,0.38926 -0.17437,0.53708 -0.44008,0.37291 -0.24199,-0.14943 -0.67093,0.0438 -0.95317,0.42985 -0.49529,0.6774 -0.6064,0.67123 -3.19226,-0.17641 -1.4735,-0.48307 -3.00984,-0.79183 -3.41403,-0.68612 -0.45828,0.11995 -1.0487,-0.14195 -1.56829,-0.69484 -0.92989,-0.98978 -12.5548,-6.89367 -16.41258,-8.33535 -5.09313,-1.90337 -11.35372,-3.01406 -27.31773,-4.84654 -3.99258,-0.45829 -7.77506,-1.05147 -8.40544,-1.31817 -3.03132,-1.28241 -6.70971,-5.94502 -8.89328,-11.272842 -0.64612,-1.576461 -2.06858,-6.217343 -3.16108,-10.313094 -1.09249,-4.095751 -2.07244,-7.671178 -2.17767,-7.945433 -0.10521,-0.274209 1.16269,0.51155 2.81765,1.746184 10.46923,7.810425 24.01357,12.842067 41.78862,15.524277 6.61858,0.998723 15.65618,1.970486 21.77774,2.341628 13.85356,0.83991 20.96577,4.5447 39.10682,20.37092 6.05497,5.28233 7.01832,5.95778 15.35217,10.7636 7.47155,4.3086 10.37151,6.41852 13.83873,10.06857 4.38418,4.61546 7.13439,9.98686 8.11048,15.84073 0.48618,2.91544 0.23274,7.70056 -0.40788,7.70056 -0.19341,0 -0.35166,-0.31641 -0.35166,-0.70313 z" id="path7578"/>
    <path style="fill:#d35f5f;stroke:#810000;stroke-width:1.68228;stroke-miterlimit:4;stroke-dasharray:none" d="m 294.75332,150.7758 c -0.21519,-0.15441 -1.33277,-1.80235 -2.48342,-3.66213 -3.6027,-5.82305 -8.39063,-9.42639 -14.90339,-11.21611 -1.8089,-0.49706 -3.80281,-0.67311 -7.43821,-0.65671 -5.21409,0.0236 -5.90545,0.18367 -13.27782,3.07492 -2.35233,0.92256 -3.10455,0.51171 -3.27226,-1.78721 -0.14489,-1.98703 0.3424,-4.05752 1.91466,-8.13454 0.98163,-2.54543 1.6327,-3.51924 4.03174,-6.03027 5.52422,-5.78217 11.20092,-9.3178 15.83806,-9.86456 1.61476,-0.19024 3.64601,-0.0635 6.57452,0.41019 2.33081,0.37713 8.18724,1.13149 13.01421,1.6763 9.7884,1.10484 15.25182,2.06488 19.84458,3.48722 4.12104,1.27624 16.48697,7.43958 18.20826,9.07522 0.80934,0.76907 2.26447,1.57957 3.58098,1.99456 1.73922,0.54824 2.51664,1.06374 3.60348,2.38955 0.76224,0.92977 2.66219,3.04084 4.22205,4.69124 l 2.83624,3.00075 h -4.18346 c -4.76353,0 -8.89216,0.44015 -14.6702,1.56404 -8.33499,1.62122 -11.47344,2.63019 -18.33911,5.89576 -3.67742,1.74911 -7.62,3.4511 -8.76137,3.78218 -2.1569,0.62572 -5.66033,0.7968 -6.33954,0.3096 z" id="path7580"/>
    <path style="fill:#ffcc00;stroke:#810000;stroke-width:1.68228;stroke-miterlimit:4;stroke-dasharray:none" d="m 309.09006,175.15381 c -3.65184,-0.78131 -6.10771,-1.69158 -10.00467,-3.70826 -2.61328,-1.35234 -2.73647,-1.37646 -5.78883,-1.13355 -3.55234,0.28274 -5.00162,0.61182 -13.24355,3.00733 -3.25712,0.94666 -6.66477,1.83312 -7.57254,1.9699 l -1.65061,0.2487 0.6954,-1.22008 c 1.35173,-2.37147 4.7192,-5.26404 10.75356,-9.23698 6.38695,-4.20505 9.65365,-7.10664 11.12282,-9.87964 l 0.87398,-1.64961 2.36737,0.12494 c 3.48058,0.18367 6.4714,-0.74576 13.97532,-4.34282 6.94565,-3.32943 9.30748,-4.1182 17.00192,-5.67824 7.26015,-1.47198 11.81602,-1.8597 19.89948,-1.69347 4.07546,0.0837 7.45472,0.0574 7.50955,-0.059 0.0546,-0.11633 1.38907,-0.66298 2.96506,-1.21498 1.57607,-0.55205 4.19298,-1.49408 5.81543,-2.09343 l 2.94995,-1.08974 2.52707,0.87936 c 1.87081,0.65098 2.65795,0.77075 3.03095,0.46119 0.79749,-0.66182 4.54229,0.78288 12.05268,4.64973 4.27872,2.20292 6.72466,3.67678 6.76855,4.07849 0.50647,4.63179 0.61017,5.06711 1.29393,5.43306 0.52366,0.28024 1.07648,0.21632 2.02532,-0.23383 l 1.30499,-0.61927 2.88989,1.95005 c 3.06,2.06486 5.85691,5.46641 7.71397,9.38158 0.89276,1.88214 1.19216,3.62962 0.62191,3.62962 -0.16031,0 -1.21312,-0.62059 -2.33941,-1.37905 -6.31292,-4.25142 -15.83989,-6.3504 -24.93173,-5.49301 -7.8392,0.73927 -13.92766,2.35117 -26.30822,6.96501 -14.57693,5.43235 -19.52978,6.93278 -26.74986,8.10368 -5.00196,0.8112 -13.39296,0.73585 -17.56968,-0.15782 z" id="path7582"/>
    <path style="fill:#333437;fill-opacity:1;stroke:#9f0000;stroke-width:2.49353;stroke-miterlimit:4;stroke-dasharray:none;stroke-opacity:1" d="m 407.11462,157.45046 c -1.32551,-2.06472 -3.40785,-4.24718 -5.50505,-5.76951 -1.85513,-1.34672 -3.38042,-2.75291 -3.38951,-3.12485 -0.0388,-1.59889 -3.0805,-3.79041 -10.77635,-7.7649 -5.10948,-2.63876 -10.24373,-4.81749 -13.59134,-5.76751 -2.95896,-0.8397 -7.80083,-2.73096 -10.75984,-4.2028 -12.9666,-6.44985 -18.19395,-8.07636 -20.69328,-6.43872 -1.93038,1.26484 -6.09075,0.20589 -11.59362,-2.95082 -11.40796,-6.5442 -17.11841,-8.21722 -36.51942,-10.69912 -6.22938,-0.79691 -11.76307,-1.58514 -12.29705,-1.75158 -1.37064,-0.42728 -5.02381,-4.71385 -6.78964,-7.96686 -1.44306,-2.658307 -5.73581,-16.347673 -5.42011,-17.284289 0.0855,-0.25378 1.3023,0.315251 2.70394,1.26452 4.55816,3.087187 12.57724,6.853719 19.27214,9.052134 10.36024,3.401962 20.19256,5.107218 40.47338,7.019425 4.98348,0.46988 10.46252,1.26724 12.1756,1.77197 7.08603,2.08769 14.82128,7.24584 29.28149,19.52606 2.77066,2.35297 8.84717,6.55777 13.50336,9.34408 13.571,8.12091 19.87866,15.19025 21.79652,24.42859 0.95723,4.611 0.46642,4.95566 -1.87122,1.31418 z" id="path7584"/>
    <path style="fill:url(#linearGradient7592);fill-opacity:1;stroke:#df0000;stroke-width:2.49353;stroke-miterlimit:4;stroke-dasharray:none;stroke-opacity:1" d="m 293.26436,146.77545 c -5.47848,-8.62514 -12.79075,-12.56185 -23.29064,-12.53899 -4.23176,0.009 -5.9779,0.3082 -9.92195,1.6989 -2.63251,0.92827 -5.02289,1.68775 -5.31198,1.68775 -0.81426,0 -0.0848,-4.44615 1.34702,-8.20923 2.23709,-5.88001 10.59245,-13.34822 17.09395,-15.27893 2.65897,-0.78964 3.75756,-0.733 16.50749,0.8511 19.98778,2.48338 23.84054,3.3938 32.78619,7.74778 4.11904,2.00481 8.28738,4.25382 9.26286,4.99774 0.9755,0.74397 2.81257,1.76834 4.08233,2.27637 1.46691,0.58697 3.47035,2.2469 5.49462,4.55263 l 3.186,3.62887 -3.30416,0.005 c -9.12288,0.009 -21.9776,3.11984 -32.58001,7.88385 -4.48483,2.01515 -8.90361,3.61281 -10.47672,3.78793 l -2.72053,0.3029 z" id="path7586"/>
    <path style="mix-blend-mode:normal;fill:url(#linearGradient7590);fill-opacity:1;stroke:#e50000;stroke-width:2.49353;stroke-miterlimit:4;stroke-dasharray:none;stroke-opacity:1" d="m 312.12498,174.48295 c -4.38534,-0.49688 -7.05285,-1.32457 -11.59415,-3.59754 -3.15401,-1.57861 -3.68986,-1.6717 -7.92833,-1.37751 -2.70296,0.18752 -7.38443,1.14672 -11.54848,2.36601 -3.85156,1.12776 -7.16448,1.88724 -7.36202,1.68775 -0.45988,-0.46448 1.54439,-2.10831 9.29661,-7.62465 5.79697,-4.12503 11.58075,-9.448 11.58075,-10.65805 0,-0.28296 1.72022,-0.63756 3.82272,-0.78798 2.76749,-0.19796 5.15141,-0.86265 8.6362,-2.40787 10.89378,-4.83033 12.80223,-5.53824 18.58789,-6.89494 4.8445,-1.136 8.3541,-1.50397 17.65566,-1.8511 11.45805,-0.42765 11.68859,-0.46105 17.69709,-2.56271 5.27415,-1.84482 6.32614,-2.04631 7.87122,-1.50774 0.98085,0.34197 2.51759,0.62173 3.41486,0.62173 2.05915,0 7.33992,2.18372 13.28394,5.49326 l 4.60771,2.56548 0.3625,2.73291 c 0.39875,3.00572 1.36708,3.72626 4.17811,3.10887 1.30373,-0.28637 2.08028,0.12675 4.80643,2.55645 2.88432,2.57074 6.56963,7.58517 5.99608,8.15867 -0.11723,0.11723 -1.99583,-0.63429 -4.1745,-1.67029 -11.29993,-5.37338 -24.48378,-4.92827 -42.66446,1.44043 -26.75488,9.37224 -28.53378,9.86016 -37.74806,10.35316 -2.80321,0.14989 -6.75321,0.085 -8.77777,-0.14444 z" id="path7588"/>
    <path style="fill:#ffffff;fill-opacity:1;stroke:#9f0000;stroke-width:4.6842;stroke-miterlimit:4;stroke-dasharray:none;stroke-opacity:1" d="" id="path12748" transform="scale(0.26458333)"/>
  </g>
</svg>