<?xml version="1.0" encoding="utf-8"?><svg version="1.1" id="Layer_1" xmlns="http://www.w3.org/2000/svg" xmlns:xlink="http://www.w3.org/1999/xlink" x="0px" y="0px" viewBox="0 0 122.88 121.08" style="enable-background:new 0 0 122.88 121.08" xml:space="preserve"><g><path d="M15.36,86.24c1.14-0.89,2.79-0.68,3.68,0.46c0.89,1.14,0.68,2.79-0.46,3.68L5.35,100.66l-0.1,13.85l16.25-0.91l8.82-14.02 c0.77-1.22,2.39-1.59,3.61-0.82c1.22,0.77,1.59,2.39,0.82,3.61l-9.5,15.09c-0.43,0.73-1.21,1.24-2.12,1.29L2.76,119.9v0 c-0.05,0-0.1,0-0.15,0c-1.44-0.01-2.61-1.18-2.6-2.63l0.13-17.71c-0.06-0.85,0.29-1.71,1.01-2.27L15.36,86.24L15.36,86.24z M40.09,53.93c6.6-19.73,15.5-33.72,28.02-42.53C81.1,2.25,97.8-1.21,119.68,0.37c1.51,0.11,2.67,1.35,2.69,2.83 c2.12,23.69-2.48,40.49-12.28,53.22c-9.43,12.24-23.58,20.52-41.14,27.47v23.13c0,1.13-0.65,2.12-1.6,2.59l-17.88,11.05 c-1.36,0.84-3.14,0.42-3.98-0.94c-0.22-0.36-0.36-0.75-0.41-1.14l0,0c-3.96-30.26-8.17-31.71-32.91-40.27 c-2.96-1.02-6.15-2.13-8.31-2.89c-1.51-0.53-2.3-2.19-1.77-3.69c0.11-0.32,0.28-0.61,0.48-0.87l11.79-16.8 c0.59-0.84,1.55-1.28,2.5-1.23v0L40.09,53.93L40.09,53.93z M90.71,31.64c-1.6-1.6-3.8-2.58-6.24-2.58c-2.43,0-4.64,0.99-6.24,2.58 c-1.6,1.6-2.58,3.8-2.58,6.24c0,2.43,0.99,4.64,2.58,6.24c1.6,1.6,3.8,2.58,6.24,2.58c2.43,0,4.64-0.99,6.24-2.58 c1.6-1.6,2.58-3.8,2.58-6.24C93.29,35.44,92.3,33.24,90.71,31.64L90.71,31.64z"/></g></svg>