<svg id="Layer_1" data-name="Layer 1" xmlns="http://www.w3.org/2000/svg" viewBox="0 0 122.88 97.05"><title>planet-saturn-space</title><path d="M37.11,6.51A48.54,48.54,0,0,1,93,11.68l.27-.08c7-1.78,13.15-2.53,17.89-2.16,5.17.4,8.9,2.15,10.7,5.37,3.25,5.79-1.07,14.76-10.66,24.58-.58.59-1.19,1.19-1.81,1.8A48.53,48.53,0,0,1,30.12,85.64c-.85.22-1.69.42-2.51.61-13.36,3.07-23.25,2.07-26.5-3.72l0,0c-1.81-3.25-1.32-7.39,1.1-12.07,2.17-4.2,6-9,11.07-14l.21-.2A48.56,48.56,0,0,1,37.11,6.51Zm67.72,38.83A195.18,195.18,0,0,1,72.24,67.91l-.06,0A195.65,195.65,0,0,1,36,84a43.59,43.59,0,0,0,68.82-38.62Zm-80.59,26c3.39-.43,11.31-3.54,20.77-7.86,6.22-2.83,13-6.28,19.61-10s13-7.61,18.67-11.44c8.34-5.69,14.77-10.83,16.59-13.9q-.37-.7-.78-1.41A43.57,43.57,0,0,0,23.64,70.31l.6,1Z"/></svg>