<svg id="Layer_1" data-name="Layer 1" xmlns="http://www.w3.org/2000/svg" viewBox="0 0 111.27 122.88"><defs><style>.cls-1{fill-rule:evenodd;}</style></defs><title>lab</title><path class="cls-1" d="M26.07,44.56Zm80.8-8.83V78.15a12.27,12.27,0,0,1-24.53,0V35.73H79.76a1.82,1.82,0,0,1-1.29-.53,1,1,0,0,1-.13-.16,1.78,1.78,0,0,1-.4-1.12V27.13a1.84,1.84,0,0,1,.53-1.27h0a1.76,1.76,0,0,1,1.27-.53h29.69a1.8,1.8,0,0,1,1.28.53h0a1.8,1.8,0,0,1,.53,1.28v6.79a1.8,1.8,0,0,1-.53,1.28l-.18.15a1.8,1.8,0,0,1-1.11.38ZM90.79,54.88a1.63,1.63,0,1,0-1.63-1.63,1.63,1.63,0,0,0,1.63,1.63Zm10.29,6.78V76.94a6.49,6.49,0,0,1-6.48,6.48h0a6.49,6.49,0,0,1-6.47-6.48V61.66ZM94.78,59a1.1,1.1,0,1,0-1.1-1.1,1.1,1.1,0,0,0,1.1,1.1Zm9.59-1.72h-3.94a1.42,1.42,0,1,1,0-2.83h3.94v-4H97a1.42,1.42,0,1,1,0-2.83h7.39v-4h-4a1.42,1.42,0,0,1,0-2.83h4V34.32a1.42,1.42,0,0,1,1.41-1.42h3V28.15H80.43V32.9h3a1.43,1.43,0,0,1,1.42,1.42V78.49a9.38,9.38,0,0,0,2.77,6.65,10.22,10.22,0,0,0,14,0,9.38,9.38,0,0,0,2.77-6.65V57.25ZM41.45,11.69a7.51,7.51,0,1,1-5.3,2.2,7.47,7.47,0,0,1,5.3-2.2Zm0,2.86a4.65,4.65,0,1,1-4.64,4.64,4.65,4.65,0,0,1,4.64-4.64ZM52.85,0A6,6,0,1,1,48.6,1.76,6,6,0,0,1,52.85,0Zm0,2.86A3.15,3.15,0,1,1,49.71,6a3.15,3.15,0,0,1,3.14-3.15ZM73.93,90.51H64.41a6.9,6.9,0,0,0,.13-1.3,6.43,6.43,0,0,0-12.85,0,6.16,6.16,0,0,0,.14,1.3H46.17a5.19,5.19,0,0,0,.55-2.33,5.12,5.12,0,0,0-8.58-3.8l-.19.17a5.14,5.14,0,0,0-.94,6H15L16.48,88h9.63a1.64,1.64,0,0,0,0-3.28H18.46l2.42-4h8a1.65,1.65,0,0,0,0-3.29h-6l2.33-3.86h6.33a1.64,1.64,0,0,0,0-3.28H27.17L31,64c1.42-2.22,1.21-1.8,1.21-4.44V46.78H56.41V58.6c0,3.63-.29,3,1.68,6.07L73.93,90.51Zm-12.06,0H54.36a4,4,0,1,1,7.51,0Zm-18.94,0H40.24a2.7,2.7,0,1,1,2.69,0ZM42,67.88a4.58,4.58,0,1,1-3.22,1.34L39,69a4.5,4.5,0,0,1,3-1.16Zm0,2.45a2.12,2.12,0,1,1-2.11,2.11A2.12,2.12,0,0,1,42,70.33ZM59.83,46.41V58.6a21.85,21.85,0,0,0,0,2.41c0,.09.31.52.91,1.44l.29.44L86.2,104a16.19,16.19,0,0,1,2.7,8.79,10.41,10.41,0,0,1-1.2,4.71,9.42,9.42,0,0,1-3.38,3.58,12.9,12.9,0,0,1-7,1.77H15.54c-4.19.07-8.22.15-12.1-3.27A9.76,9.76,0,0,1,0,112a14.15,14.15,0,0,1,2.86-8l24.53-40.7c.05-.07,1.42-2.23,1.43-2.23s0-.17,0-.62V46.32a7.52,7.52,0,0,1,2.57-14.58H57.53A7.53,7.53,0,0,1,62.83,34l0,0a7.5,7.5,0,0,1,0,10.6l-.25.23a7.52,7.52,0,0,1-2.76,1.61ZM31.37,35.17H57.53a4.1,4.1,0,0,1,4.09,4.09h0a4.1,4.1,0,0,1-4.09,4.09H31.37a4.1,4.1,0,0,1-4.09-4.09h0a4.1,4.1,0,0,1,4.09-4.09Z"/></svg>