<svg id="Layer_1" data-name="Layer 1" xmlns="http://www.w3.org/2000/svg" viewBox="0 0 105.53 122.88"><defs><style>.cls-1{fill-rule:evenodd;}</style></defs><title>generate-report</title><path class="cls-1" d="M98.66,87l2.84,2.85a1.9,1.9,0,0,1,0,2.71l-2.28,2.29a15.46,15.46,0,0,1,1.42,3.79h3a1.92,1.92,0,0,1,1.92,1.92v4a1.93,1.93,0,0,1-1.92,1.93h-3.23a15.4,15.4,0,0,1-1.67,3.67l2.09,2.09a1.93,1.93,0,0,1,0,2.72L98,117.86a1.93,1.93,0,0,1-2.72,0L93,115.58A15.88,15.88,0,0,1,89.16,117v3a1.93,1.93,0,0,1-1.92,1.92h-4A1.93,1.93,0,0,1,81.31,120v-3.23a15.32,15.32,0,0,1-3.68-1.68l-2.09,2.1a1.93,1.93,0,0,1-2.72,0L70,114.3a1.91,1.91,0,0,1,0-2.71l2.28-2.29a15.88,15.88,0,0,1-1.42-3.79h-3A1.93,1.93,0,0,1,66,103.59v-4a1.94,1.94,0,0,1,1.92-1.93H71.1A15.43,15.43,0,0,1,72.78,94l-2.1-2.09a1.93,1.93,0,0,1,0-2.72l2.85-2.84a1.91,1.91,0,0,1,2.71,0l2.29,2.28a15.83,15.83,0,0,1,3.79-1.42v-3a1.93,1.93,0,0,1,1.92-1.92h4a1.93,1.93,0,0,1,1.92,1.92v3.23a15,15,0,0,1,3.67,1.68L95.94,87a1.94,1.94,0,0,1,2.72,0ZM60.26,117a3,3,0,0,1,0,5.92H6.89A6.89,6.89,0,0,1,0,116V6.85A6.82,6.82,0,0,1,2,2,6.79,6.79,0,0,1,6.88,0H91.52a6.9,6.9,0,0,1,6.89,6.89V68.23c0,.06,0,.12,0,.18a3,3,0,0,1-5.94,0V6.89h0a1,1,0,0,0-.28-.68,1,1,0,0,0-.68-.29H6.89a.94.94,0,0,0-1,1V116h0a1,1,0,0,0,.28.67,1,1,0,0,0,.69.29H60.26ZM19,102.66V96H47.83v6.63l-28.82,0Zm55.3-42.9v6.11H65.62V59.76ZM58.77,54.38V65.87H50.08V54.38ZM43.24,37.92v28H34.55V37.92ZM27.7,26.41V65.87H19V26.41ZM69,29.31l13.11.05a13.14,13.14,0,0,1-3.91,9.29,13.55,13.55,0,0,1-1.91,1.56L69,29.31Zm-1.34-2.6L67,12.7a.51.51,0,0,1,.48-.53H68A14.56,14.56,0,0,1,82.69,25.67a.52.52,0,0,1-.47.54l-14,1a.49.49,0,0,1-.53-.46.08.08,0,0,0,0,0Zm.83-13.55.65,12.51L80.9,24.61a11.68,11.68,0,0,0-4-7.86c-2.46-2.27-4.74-3.62-8.32-3.58ZM66.1,28.7l7,12.17A14.05,14.05,0,1,1,64.06,14.8l2,13.9ZM19,84.83V78.15H59.86v6.63L19,84.83Zm66.73,9.38a7.89,7.89,0,1,1-7.89,7.89,7.89,7.89,0,0,1,7.89-7.89Z"/></svg>