<?xml version="1.0" encoding="utf-8"?><svg version="1.1" id="Layer_1" xmlns="http://www.w3.org/2000/svg" xmlns:xlink="http://www.w3.org/1999/xlink" x="0px" y="0px" viewBox="0 0 96 95.81" style="enable-background:new 0 0 96 95.81" xml:space="preserve"><style type="text/css">.st0{fill-rule:evenodd;clip-rule:evenodd;}</style><g><path class="st0" d="M59.58,36.02c1.82,0,3.57,0.28,5.22,0.79c0.05-0.12,0.12-0.24,0.18-0.36l8.78-15.4 c-1.99-2.23-3.19-5.18-3.19-8.4C70.58,5.66,76.24,0,83.23,0c6.99,0,12.65,5.66,12.65,12.65c0,6.99-5.66,12.65-12.65,12.65 c-0.82,0-1.62-0.08-2.4-0.23l-8.78,15.38c-0.09,0.16-0.19,0.31-0.29,0.45c3.36,3.21,5.46,7.74,5.46,12.76 c0,4.18-1.45,8.02-3.88,11.04c0.06,0.06,0.11,0.12,0.17,0.18l5.56,6.37c1.34-0.48,2.78-0.74,4.28-0.74 c6.99,0,12.65,5.66,12.65,12.65c0,6.99-5.66,12.65-12.65,12.65c-6.99,0-12.65-5.66-12.65-12.65c0-2.52,0.74-4.87,2.01-6.84 l-5.32-6.09c-0.15-0.18-0.29-0.36-0.41-0.56c-2.25,1.04-4.76,1.62-7.4,1.62c-5.29,0-10.03-2.33-13.27-6.02 c-0.13,0.09-0.27,0.18-0.42,0.25L23.83,77.18c0.96,1.78,1.5,3.81,1.5,5.97c0,6.99-5.66,12.65-12.65,12.65 c-6.99,0-12.65-5.66-12.65-12.65c0-6.99,5.66-12.65,12.65-12.65c1.73,0,3.39,0.35,4.89,0.98c0.28-0.27,0.6-0.51,0.96-0.71 L42.1,58.34c0.14-0.07,0.27-0.13,0.41-0.19c-0.38-1.43-0.58-2.94-0.58-4.49c0-2.65,0.59-5.16,1.63-7.42c-0.1-0.06-0.2-0.13-0.3-0.2 l-23.4-17.31c-2.05,1.43-4.54,2.26-7.22,2.26C5.66,30.99,0,25.33,0,18.34C0,11.36,5.66,5.69,12.65,5.69 c6.99,0,12.65,5.66,12.65,12.65c0,1.34-0.21,2.64-0.6,3.85l23.41,17.32c0.16,0.12,0.3,0.24,0.44,0.38 C51.58,37.47,55.41,36.02,59.58,36.02L59.58,36.02z"/></g></svg>