<?xml version="1.0" encoding="utf-8"?><svg version="1.1" id="Layer_1" xmlns="http://www.w3.org/2000/svg" xmlns:xlink="http://www.w3.org/1999/xlink" x="0px" y="0px" viewBox="0 0 108.22 122.88" style="enable-background:new 0 0 108.22 122.88" xml:space="preserve"><g><path d="M54.11,0c5.65,0,10.45,7.29,13.65,19.07c1.11,4.09,2.06,8.76,2.81,13.87c4.8-1.9,9.32-3.41,13.41-4.5 c11.79-3.12,20.5-2.6,23.33,2.29c2.82,4.89-1.09,12.69-9.69,21.34c-2.98,3-6.55,6.16-10.61,9.37c1.62,1.28,3.17,2.56,4.63,3.82 c-1.33,0.93-2.42,2.16-3.18,3.6c-1.68-1.45-3.48-2.92-5.38-4.41c-3.35,2.49-6.96,4.99-10.8,7.46c-0.22,4.57-0.58,8.95-1.06,13.1 c5.03,2.04,9.75,3.64,13.99,4.76c9.61,2.54,16.34,2.73,17.94-0.03c0.85-1.47,0.25-3.78-1.54-6.68c1.45-0.63,2.73-1.59,3.75-2.78 c2.89,4.73,3.7,8.84,1.96,11.85c-2.83,4.89-11.53,5.41-23.33,2.29c-4.09-1.08-8.61-2.6-13.42-4.5c-0.75,5.11-1.7,9.78-2.81,13.87 c-3.2,11.78-8,19.07-13.65,19.07c-5.65,0-10.45-7.29-13.65-19.07c-1.11-4.09-2.06-8.76-2.81-13.87c-1.74,0.69-3.44,1.33-5.09,1.91 c-0.13-1.67-0.66-3.22-1.49-4.57c1.92-0.68,3.9-1.43,5.94-2.26c-0.48-4.15-0.85-8.54-1.06-13.11c-3.84-2.47-7.45-4.97-10.8-7.46 c-4.29,3.34-8.04,6.63-11.13,9.74C7,81.25,3.47,86.99,5.07,89.76c0.89,1.54,3.37,2.16,7.05,1.97c-0.03,0.3-0.04,0.61-0.04,0.92 c0,1.31,0.25,2.56,0.69,3.71C6.9,96.61,2.71,95.27,0.91,92.15c-2.82-4.89,1.09-12.69,9.69-21.34c2.99-3,6.55-6.16,10.61-9.37 c-4.05-3.21-7.62-6.37-10.61-9.37c-8.6-8.65-12.51-16.45-9.69-21.34c2.83-4.89,11.53-5.41,23.33-2.29 c4.09,1.08,8.61,2.59,13.42,4.5c0.27-1.85,0.57-3.64,0.89-5.36c1.39,0.7,2.95,1.09,4.61,1.09l0.09,0c-0.37,1.97-0.7,4.04-1,6.18 c3.83,1.65,7.81,3.53,11.86,5.62c4.06-2.09,8.03-3.97,11.86-5.62c-0.75-5.39-1.72-10.28-2.87-14.51c-2.6-9.58-5.8-15.51-8.99-15.51 c-1.77,0-3.55,1.83-5.22,5.09c-1.29-0.87-2.78-1.46-4.4-1.67C47.22,2.99,50.49,0,54.11,0L54.11,0z M96.79,66.74 c3.67,0,6.65,2.98,6.65,6.65c0,3.67-2.98,6.65-6.65,6.65c-3.67,0-6.65-2.98-6.65-6.65C90.14,69.72,93.11,66.74,96.79,66.74 L96.79,66.74z M22.35,85.79c3.67,0,6.65,2.98,6.65,6.65s-2.98,6.65-6.65,6.65c-3.67,0-6.65-2.98-6.65-6.65S18.68,85.79,22.35,85.79 L22.35,85.79z M43.15,11.76c3.67,0,6.65,2.98,6.65,6.65s-2.98,6.65-6.65,6.65c-3.67,0-6.65-2.98-6.65-6.65S39.48,11.76,43.15,11.76 L43.15,11.76z M54.11,52.6c4.88,0,8.84,3.96,8.84,8.84c0,4.88-3.96,8.84-8.84,8.84c-4.88,0-8.84-3.96-8.84-8.84 C45.27,56.56,49.23,52.6,54.11,52.6L54.11,52.6z M25.14,58.42c3.35-2.49,6.96-4.99,10.8-7.46c0.22-4.56,0.58-8.95,1.06-13.1 c-5.04-2.04-9.75-3.64-13.99-4.77c-9.61-2.54-16.34-2.73-17.94,0.03c-1.6,2.77,1.93,8.51,8.94,15.56 C17.1,51.79,20.85,55.08,25.14,58.42L25.14,58.42z M65.97,88.04c-3.83-1.65-7.81-3.54-11.86-5.63c-4.06,2.09-8.03,3.97-11.86,5.63 c0.75,5.39,1.72,10.28,2.87,14.51c2.6,9.58,5.8,15.51,9,15.51c3.19,0,6.4-5.93,8.99-15.51C64.25,98.32,65.22,93.42,65.97,88.04 L65.97,88.04z M48.92,79.65c-1.32-0.73-2.65-1.48-3.98-2.25l0,0c-0.04-0.02-0.09-0.05-0.13-0.08c-1.31-0.76-2.6-1.52-3.87-2.29 c0.18,2.76,0.41,5.44,0.69,8.02C44.01,82.01,46.45,80.87,48.92,79.65L48.92,79.65z M59.3,43.23c1.33,0.73,2.67,1.49,4.02,2.26 c1.34,0.77,2.66,1.55,3.96,2.34c-0.18-2.75-0.41-5.43-0.69-8.01C64.21,40.87,61.78,42.01,59.3,43.23L59.3,43.23z M72.28,50.96 c3.84,2.47,7.45,4.97,10.8,7.46c4.29-3.34,8.04-6.63,11.13-9.74c7-7.05,10.53-12.79,8.94-15.56c-1.6-2.76-8.33-2.57-17.94-0.03 c-4.24,1.12-8.96,2.72-13.99,4.77C71.7,42.01,72.06,46.39,72.28,50.96L72.28,50.96z M79.08,61.44c-2.1-1.53-4.3-3.07-6.6-4.6 c0.03,1.52,0.05,3.05,0.05,4.6c0,1.55-0.02,3.09-0.05,4.61C74.78,64.52,76.98,62.98,79.08,61.44L79.08,61.44z M67.57,53.66 c-2.15-1.35-4.38-2.69-6.66-4l0,0c-2.28-1.32-4.55-2.57-6.8-3.77c-2.25,1.19-4.52,2.45-6.8,3.77l0,0l-0.01,0 c-2.28,1.32-4.5,2.65-6.65,4c-0.09,2.55-0.14,5.14-0.14,7.78c0,2.64,0.05,5.24,0.14,7.78c2.13,1.33,4.32,2.65,6.57,3.95 c0.01,0,0.06,0.03,0.06,0.03l0.03,0.02c2.29,1.32,4.56,2.58,6.81,3.77c2.23-1.18,4.47-2.42,6.73-3.73 c0.04-0.02,0.08-0.05,0.12-0.07l0,0c2.26-1.31,4.47-2.63,6.6-3.97c0.09-2.54,0.14-5.14,0.14-7.78 C67.71,58.8,67.66,56.21,67.57,53.66L67.57,53.66z M48.91,43.23c-2.47-1.22-4.91-2.36-7.28-3.41c-0.28,2.59-0.51,5.26-0.69,8.02 c1.3-0.79,2.62-1.57,3.96-2.34l0,0C46.24,44.72,47.58,43.96,48.91,43.23L48.91,43.23z M29.14,61.44c2.1,1.54,4.3,3.08,6.6,4.61 c-0.03-1.52-0.05-3.06-0.05-4.61c0-1.55,0.02-3.09,0.05-4.61C33.44,58.36,31.23,59.9,29.14,61.44L29.14,61.44z M59.29,79.65 c2.48,1.22,4.91,2.36,7.29,3.41c0.28-2.59,0.51-5.26,0.69-8.02c-1.3,0.79-2.62,1.57-3.97,2.35l-0.07,0.04 C61.92,78.19,60.6,78.93,59.29,79.65L59.29,79.65z"/></g></svg>